<svg width="17" height="18" viewBox="0 0 17 18" fill="none" xmlns="http://www.w3.org/2000/svg">
<path d="M9.03124 1.49994V3.35169C9.03124 3.98469 8.74999 4.28919 8.16424 4.28919C7.57849 4.28919 7.29724 3.98469 7.29724 3.35169V1.49994C7.29724 0.890193 7.57849 0.585693 8.16424 0.585693C8.74999 0.585693 9.03124 0.890193 9.03124 1.49994ZM10.7892 3.93744L11.8677 2.41419C12.2195 1.94544 12.665 1.85169 13.1097 2.17944C13.5545 2.50719 13.6017 2.92944 13.2507 3.44544L12.1722 4.94544C11.8205 5.46144 11.399 5.50794 10.9302 5.18019C10.4847 4.85169 10.4382 4.45344 10.7892 3.93819V3.93744ZM4.46074 2.43744L5.56249 3.93744C5.91424 4.45344 5.86699 4.85169 5.39824 5.17944C4.95274 5.53119 4.53124 5.46069 4.17949 4.94469L3.07774 3.44469C2.72599 2.92869 2.77324 2.53044 3.24199 2.20269C3.68749 1.85094 4.10899 1.92144 4.46074 2.43744ZM8.16424 5.34369C10.1802 5.34369 11.8205 6.98469 11.8205 8.99994C11.8205 10.9919 10.1795 12.6097 8.16424 12.6097C6.14899 12.6097 4.50799 10.9927 4.50799 8.99994C4.50799 6.98394 6.14899 5.34369 8.16424 5.34369ZM1.32049 5.85969L3.10174 6.42219C3.68749 6.60969 3.89899 6.96144 3.71149 7.52394C3.54724 8.08644 3.14899 8.25069 2.53924 8.06319L0.804494 7.50069C0.218744 7.31319 0.00724412 6.93819 0.171494 6.37569C0.358994 5.83644 0.734744 5.67219 1.32049 5.85969ZM13.25 6.42219L15.008 5.85969C15.6177 5.67219 15.9927 5.83644 16.1562 6.37569C16.3437 6.93819 16.133 7.31319 15.5232 7.47744L13.7885 8.06319C13.2027 8.25069 12.8277 8.08644 12.6402 7.52394C12.476 6.96144 12.6635 6.60969 13.25 6.42219ZM8.16424 11.0159C9.28924 11.0159 10.2035 10.1017 10.2035 8.99994C10.2035 7.87494 9.28924 6.96069 8.16424 6.96069C7.03924 6.96069 6.14824 7.87494 6.14824 8.99994C6.14824 10.1017 7.03924 11.0159 8.16424 11.0159ZM0.804494 10.4767L2.56249 9.91419C3.14824 9.72669 3.54724 9.86694 3.71074 10.4302C3.89824 10.9927 3.68749 11.3444 3.10099 11.5319L1.31974 12.1177C0.733994 12.3052 0.358994 12.1409 0.171494 11.5784C0.00724412 11.0159 0.218744 10.6642 0.804494 10.4767ZM13.7892 9.91419L15.5472 10.4767C16.133 10.6642 16.3445 11.0159 16.157 11.5784C15.9927 12.1409 15.6177 12.3052 15.0087 12.1177L13.2507 11.5319C12.641 11.3444 12.4775 10.9927 12.641 10.4302C12.8285 9.86769 13.2035 9.72669 13.7892 9.91419ZM3.07849 14.5079L4.18024 13.0312C4.53199 12.5152 4.95349 12.4454 5.39899 12.7964C5.86774 13.1249 5.91499 13.5232 5.56324 14.0384L4.46149 15.5152C4.10974 16.0312 3.68824 16.1249 3.21949 15.7964C2.77399 15.4679 2.72749 15.0239 3.07849 14.5079ZM12.1722 13.0312L13.2507 14.5079C13.6025 15.0239 13.5552 15.4687 13.1097 15.7972C12.6642 16.1257 12.2187 16.0079 11.8677 15.5392L10.7892 14.0392C10.4375 13.5232 10.4847 13.1249 10.9302 12.7972C11.399 12.4687 11.8212 12.5152 12.1722 13.0312ZM9.03124 14.6017V16.4534C9.03124 17.0864 8.74999 17.3909 8.16424 17.3909C7.57849 17.3909 7.29724 17.0864 7.29724 16.4534V14.6017C7.29724 13.9687 7.57849 13.6642 8.16424 13.6642C8.74999 13.6642 9.03124 13.9687 9.03124 14.6017Z" fill="#F5F5F5"/>
</svg>
